<svg width="20" height="21" viewBox="0 0 20 21" fill="none" xmlns="http://www.w3.org/2000/svg">
<path d="M8.60001 8.40039C10.81 8.40039 12.6 6.61039 12.6 4.40039C12.6 2.19039 10.81 0.400391 8.60001 0.400391C6.39001 0.400391 4.60001 2.19039 4.60001 4.40039C4.60001 6.61039 6.39001 8.40039 8.60001 8.40039ZM8.60001 10.4004C5.93001 10.4004 0.600006 11.7404 0.600006 14.4004V16.4004H16.6V14.4004C16.6 11.7404 11.27 10.4004 8.60001 10.4004Z" fill="#109CF1"/>
<path d="M18.5935 15.323L18.5935 15.323L18.6003 15.3175C18.9662 15.0248 19.0419 14.5245 18.8409 14.1449L18.8344 14.1327L18.8275 14.1207L18.089 12.8422C17.841 12.4044 17.3458 12.2948 16.9735 12.4189L16.952 12.426L16.9309 12.4345L16.377 12.6572C16.3686 12.6523 16.3603 12.6474 16.3518 12.6426L16.2684 12.0533L16.2685 12.0533L16.2675 12.0471C16.1964 11.573 15.7898 11.251 15.3407 11.251H13.8595C13.387 11.251 13.005 11.596 12.9373 12.0471L12.9373 12.0471L12.9364 12.0533L12.8529 12.6434C12.8448 12.6481 12.8367 12.6528 12.8286 12.6575L12.2739 12.4345L12.2739 12.4345L12.266 12.4314C11.8401 12.2657 11.3482 12.4325 11.1159 12.842L10.3773 14.1207L10.3772 14.1206L10.3712 14.1316C10.1561 14.5188 10.2292 15.0303 10.6152 15.3259L11.073 15.6835C11.0729 15.6903 11.0729 15.6971 11.0729 15.7039C11.0729 15.7095 11.0729 15.7151 11.073 15.7207L10.6068 16.0849L10.6067 16.0848L10.5999 16.0903C10.234 16.383 10.1584 16.8834 10.3593 17.2629L10.3658 17.2751L10.3727 17.2871L11.1112 18.5656C11.3592 19.0035 11.8544 19.1131 12.2267 18.989L12.2482 18.9818L12.2693 18.9733L12.8232 18.7506C12.8316 18.7555 12.84 18.7604 12.8484 18.7652L12.9318 19.3546L12.9348 19.3757L12.9389 19.3966C13.0219 19.8115 13.3815 20.1568 13.8595 20.1568H15.3407C15.7758 20.1568 16.2047 19.8442 16.2652 19.3446L16.3473 18.7644C16.3554 18.7598 16.3635 18.7551 16.3716 18.7503L16.9263 18.9733L16.9263 18.9734L16.9342 18.9765C17.3601 19.1421 17.852 18.9753 18.0843 18.5658L18.8229 17.2871L18.823 17.2872L18.8291 17.2762C19.0437 16.8898 18.9713 16.3795 18.5873 16.0837L18.1273 15.72C18.1273 15.7147 18.1273 15.7093 18.1273 15.7039C18.1273 15.6983 18.1273 15.6927 18.1273 15.6871L18.5935 15.323ZM14.6001 16.3425C14.2506 16.3425 13.9615 16.0534 13.9615 15.7039C13.9615 15.3544 14.2506 15.0653 14.6001 15.0653C14.9496 15.0653 15.2387 15.3544 15.2387 15.7039C15.2387 16.0534 14.9496 16.3425 14.6001 16.3425Z" fill="#109CF1" stroke="white" stroke-width="1.5"/>
<circle cx="14.6001" cy="15.601" r="0.6" fill="white"/>
</svg>
